<svg xmlns="http://www.w3.org/2000/svg" xmlns:xlink="http://www.w3.org/1999/xlink" width="390" height="320" viewBox="0 0 390 320">
  <defs>
    <polygon id="how-to-use-data-illustration-a" points="0 320 390 320 390 0 0 0"/>
  </defs>
  <g fill="none" fill-rule="evenodd">
    <path fill="#231F20" d="M193.320191,96.2219495 C190.644988,95.779668 187.907572,95.4863854 185.185237,95.3477598 L185.353969,92 C188.201674,92.1433407 191.067289,92.4517118 193.86692,92.91474 L193.320191,96.2219495 Z M168.874798,96.3530308 L168.292249,93.0505365 C171.092822,92.5563883 173.954666,92.2197262 176.796715,92.0471515 L176.999382,95.3930253 C174.283646,95.5580557 171.55,95.8815153 168.874798,96.3530308 Z M209.032056,100.704176 C206.518987,99.6640124 203.918253,98.7587027 201.303379,98.0137083 L202.220564,94.7885425 C204.959866,95.5693721 207.6822,96.5161752 210.312156,97.6053759 L209.032056,100.704176 Z M153.213835,101.002173 L151.900742,97.9184622 C154.520329,96.8019135 157.231352,95.8249335 159.957457,95.0148699 L160.912347,98.2296624 C158.3069,99.0029478 155.717477,99.9365484 153.213835,101.002173 Z M223.328081,108.626578 C221.114771,107.047945 218.786458,105.578702 216.405359,104.258459 L218.030464,101.326576 C220.52091,102.70623 222.957625,104.244314 225.273683,105.897447 L223.328081,108.626578 Z M139.013016,109.070746 L137.039135,106.361418 C139.340111,104.684709 141.759859,103.120221 144.229566,101.716991 L145.885779,104.630956 C143.524474,105.974775 141.212187,107.467593 139.013016,109.070746 Z M235.480551,119.558193 C233.673517,117.522189 231.732628,115.568229 229.711616,113.749123 L231.953205,111.256692 C234.067539,113.157842 236.096093,115.202333 237.987022,117.331697 L235.480551,119.558193 Z M126.97649,120.126841 L124.446454,117.928636 C126.312874,115.778525 128.321633,113.712344 130.417114,111.789504 L132.683212,114.259302 C130.680109,116.09727 128.759959,118.071976 126.97649,120.126841 Z M244.875809,132.928486 C243.574971,130.540731 242.121425,128.202015 240.557591,125.977405 L243.299721,124.049849 C244.935195,126.37725 246.455668,128.823472 247.816835,131.322504 L244.875809,132.928486 Z M117.717914,133.599924 L114.758978,132.026005 C116.093752,129.513771 117.589716,127.049631 119.204452,124.701484 L121.965435,126.600748 C120.423281,128.846105 118.994244,131.19991 117.717914,133.599924 Z M251.017086,148.067904 C250.287485,145.443449 249.398579,142.836912 248.376761,140.319962 L251.482749,139.05913 C252.551698,141.693958 253.481138,144.422147 254.245616,147.168253 L251.017086,148.067904 Z M111.736886,148.814785 L108.497987,147.950969 C109.230415,145.199204 110.131576,142.458756 111.174132,139.807896 L114.292373,141.035723 C113.296007,143.567761 112.436322,146.185615 111.736886,148.814785 Z M253.577287,164.208822 C253.456629,161.486292 253.180437,158.745844 252.75625,156.062921 L256.064905,155.538596 C256.510772,158.345056 256.800161,161.21187 256.926474,164.060766 L253.577287,164.208822 Z M109.35013,164.982107 L106,164.868944 C106.096149,162.017218 106.354431,159.147575 106.768249,156.339229 L110.084444,156.828662 C109.689479,159.511585 109.442509,162.253919 109.35013,164.982107 Z M256.521141,176.007082 L253.190806,175.630813 C253.494335,172.941289 253.648927,170.190467 253.648927,167.456621 L257,167.456621 C257,170.31589 256.839752,173.192135 256.521141,176.007082 Z M107.339486,181.918943 C106.799356,179.130401 106.412875,176.274903 106.18947,173.430722 L109.531116,173.169502 C109.744152,175.88826 110.113666,178.616449 110.629288,181.279568 L107.339486,181.918943 Z M252.687438,192.680812 L249.528663,191.562377 C250.437365,188.993561 251.206556,186.348359 251.815499,183.699385 L255.082677,184.450981 C254.444512,187.223492 253.639501,189.992231 252.687438,192.680812 Z M112.485339,198.231492 C111.324954,195.631556 110.302193,192.937317 109.445336,190.221387 L112.641817,189.212344 C113.460025,191.805679 114.436597,194.381097 115.545137,196.86504 L112.485339,198.231492 Z M245.181223,208.055989 L242.356142,206.251027 C243.820999,203.953804 245.168969,201.551904 246.361404,199.11134 L249.372185,200.582468 C248.125077,203.138082 246.714893,205.652203 245.181223,208.055989 Z M121.179276,212.951262 C119.462735,210.679501 117.860253,208.286088 116.415191,205.83798 L119.300601,204.133923 C120.681564,206.471697 122.213348,208.758547 123.853536,210.932233 L121.179276,212.951262 Z M234.415372,221.343294 L232.064436,218.952711 C234.004382,217.044016 235.856663,215.005184 237.569434,212.892794 L240.172996,215.004241 C238.381044,217.214705 236.443926,219.346898 234.415372,221.343294 Z M132.951863,225.352119 C130.777201,223.525468 128.679834,221.551704 126.71538,219.485524 L129.144554,217.175098 C131.023229,219.150748 133.029159,221.036809 135.107673,222.783303 L132.951863,225.352119 Z M220.952637,231.880722 L219.197448,229.023338 C221.514449,227.598419 223.774891,226.026386 225.914676,224.351563 L227.981878,226.99205 C225.741231,228.745144 223.376156,230.38979 220.952637,231.880722 Z M147.208298,234.800346 C144.680147,233.511223 142.192529,232.057069 139.812372,230.481264 L141.662767,227.685178 C143.937349,229.192141 146.314678,230.582169 148.730656,231.81471 L147.208298,234.800346 Z M205.462291,239.120371 L204.398997,235.94047 C206.97428,235.077597 209.530711,234.055352 211.995705,232.902968 L213.415316,235.94047 C210.834377,237.146607 208.158232,238.216947 205.462291,239.120371 Z M163.233118,240.789535 C160.468365,240.103952 157.714924,239.250509 155.049148,238.252782 L156.223673,235.111546 C158.769735,236.06495 161.39969,236.879729 164.040015,237.536079 L163.233118,240.789535 Z M188.738034,242.664281 L188.418481,239.325951 C191.133274,239.067561 193.85278,238.650741 196.507245,238.088695 L197.200082,241.3695 C194.424018,241.957008 191.576313,242.392688 188.738034,242.664281 Z M180.184551,243 C177.328362,242.952848 174.456149,242.742553 171.647092,242.376657 L172.079762,239.050586 C174.764391,239.400451 177.510291,239.601316 180.241109,239.647525 L180.184551,243 Z"/>
    <path fill="#1F2D4E" d="M182.005714,253.801097 C134.61782,253.801097 96.2007969,215.386828 96.2007969,167.997165 C96.2007969,120.766258 134.365505,82.4531018 181.536994,82.1989029 L181.536994,40 C111.058063,40.2551439 54,97.4612301 54,167.997165 C54,238.691856 111.311323,296 182.005714,296 C216.589823,296 247.964717,282.279876 271,259.993533 C261.083186,249.946535 251.029347,239.714322 241.416823,229.903568 C226.000118,244.702856 205.065566,253.801097 182.005714,253.801097"/>
    <path fill="#F1F2F2" d="M310,168.002904 C310,97.3085976 252.901259,40 182.466988,40 C182.311639,40 182.15629,40.0047249 182,40.0047249 L182,82.2039621 C182.15629,82.2039621 182.311639,82.1992371 182.466988,82.1992371 C229.680829,82.1992371 267.956926,120.6157 267.956926,168.002904 C267.956926,192.331535 257.866777,214.293925 241.658703,229.909797 C251.23573,239.720628 261.252442,249.952923 271.132635,260 C295.095916,236.728807 310,204.115494 310,168.002904"/>
    <path fill="#231F20" d="M244.017261,230.306211 C253.575663,240.032382 262.732881,249.320786 271.276968,257.955369 C295.383027,234.09988 308.636298,202.390996 308.636298,168.474406 C308.636298,99.3345278 252.551886,43.0106658 183.363702,42.3596756 L183.363702,81.1398231 C231.109349,81.7870394 269.74698,120.716254 269.74698,168.474406 C269.74698,191.913827 260.623825,213.804081 244.017261,230.306211 M271.257098,262 C270.822797,262 270.388497,261.83395 270.059223,261.500908 C260.831041,252.177595 250.863885,242.069321 240.435935,231.45535 C240.1218,231.134573 239.947702,230.702466 239.955271,230.255264 C239.962841,229.807119 240.148294,229.381616 240.47189,229.070273 C257.181589,213.07667 266.384224,191.558142 266.384224,168.474406 C266.384224,122.163528 228.597217,84.4853467 182.150688,84.4853467 L181.682324,84.490064 C180.753167,84.490064 180,83.7400101 180,82.8135283 L180,40.6821965 C180,39.7557147 180.753167,39.0047173 181.682324,39.0047173 L182.150688,39 C253.749762,39 312,97.0824791 312,168.474406 C312,203.860913 297.945307,236.908573 272.425642,261.528268 C272.100153,261.843385 271.678152,262 271.257098,262"/>
    <path fill="#00C718" d="M122,169 C122.16804,201.010356 148.394539,228 181,228 L181,169 L122,169 Z"/>
    <path fill="#F1F2F2" d="M181.504301,169.125778 L181.504301,228 C214.384749,228 241,201.361374 241,168.499053 C240.999053,135.638626 214.358241,109 181.500514,109 C148.639,109 122.000082,135.794834 122.000082,168.654314 C121.999135,168.761293 122.006709,169.125778 122.006709,169.125778 L181.504301,169.125778 Z"/>
    <path fill="#231F20" d="M124.368702,166.946616 L182.004288,166.946616 C182.931154,166.946616 183.682463,167.697954 183.682463,168.623913 L183.682463,225.620865 C214.692832,224.730774 239.644594,199.223966 239.644594,167.999056 C239.64365,136.214418 213.782956,110.355538 182.000513,110.355538 C150.61732,110.355538 125.011467,135.630149 124.368702,166.946616 M182.004288,229 C181.077422,229 180.326113,228.249605 180.326113,227.322703 L180.326113,170.302154 L122.684864,170.302154 C121.770268,170.302154 121.024622,169.571581 121.006689,168.656949 C121.006689,168.656949 120.999138,168.255795 121.000082,168.137808 C121.000082,134.434237 148.364338,107 182.000513,107 C215.633856,107 242.999056,134.363445 243,167.999056 C243,201.636555 215.636688,229 182.004288,229"/>
    <mask id="how-to-use-data-illustration-b" fill="#fff">
      <use xlink:href="#how-to-use-data-illustration-a"/>
    </mask>
    <polygon fill="#231F20" points="171 218 181 218 181 215 171 215" mask="url(#how-to-use-data-illustration-b)"/>
    <polygon fill="#231F20" points="159 208 181 208 181 205 159 205" mask="url(#how-to-use-data-illustration-b)"/>
    <polygon fill="#231F20" points="146 199 182 199 182 196 146 196" mask="url(#how-to-use-data-illustration-b)"/>
    <polygon fill="#231F20" points="139 190 182 190 182 187 139 187" mask="url(#how-to-use-data-illustration-b)"/>
    <polygon fill="#231F20" points="131 180 182 180 182 177 131 177" mask="url(#how-to-use-data-illustration-b)"/>
    <path fill="#FFF" d="M106,123.851775 C106,95.2137265 82.7046482,72 54.060768,72 C25.4168879,72 2,95.2137265 2,123.850834 C2,149.205467 20.6882876,170.304659 44.0608949,174.810643 L44.0608949,245 L63.6950909,245 L63.6950909,174.847376 C87.0686403,170.419569 106,149.275167 106,123.851775" mask="url(#how-to-use-data-illustration-b)"/>
    <path fill="#231F20" d="M45.6860009,243.639223 L62.0685079,243.639223 L62.0685079,174.907306 C62.0685079,174.099018 62.6447961,173.406064 63.4400358,173.255751 C86.921882,168.817256 104.63042,147.523824 104.63042,123.72328 C104.63042,95.9531429 81.9447619,73.3607774 54.0611358,73.3607774 C26.110213,73.3607774 3.37052737,95.9531429 3.37052737,123.722335 C3.37052737,147.451976 20.9748032,168.731228 44.3201601,173.219827 C45.1135041,173.372976 45.6860009,174.064985 45.6860009,174.870437 L45.6860009,243.639223 Z M63.7537716,247 L44.0007372,247 C43.069956,247 42.3154735,246.247488 42.3154735,245.319139 L42.3154735,176.238382 C18.0952582,170.898007 0,148.569399 0,123.722335 C0,94.0992795 24.252442,70 54.0611358,70 C83.8034807,70 108,94.0992795 108,123.72328 C108,148.645974 89.8004792,170.992544 65.4390353,176.279978 L65.4390353,245.319139 C65.4390353,246.247488 64.6845528,247 63.7537716,247 Z" mask="url(#how-to-use-data-illustration-b)"/>
    <polygon fill="#231F20" points="44 176 54 176 54 173 44 173" mask="url(#how-to-use-data-illustration-b)"/>
    <polygon fill="#BCBEC0" points="48 254 60 254 60 245 48 245" mask="url(#how-to-use-data-illustration-b)"/>
    <path fill="#231F20" d="M49.4572522,253.571333 L58.54372,253.571333 L58.54372,247.428667 L49.4572522,247.428667 L49.4572522,253.571333 Z M60.2713739,257 L47.7286261,257 C46.7738956,257 46,256.233252 46,255.285184 L46,245.713851 C46,244.766748 46.7738956,244 47.7286261,244 L60.2713739,244 C61.2261044,244 62,244.766748 62,245.713851 L62,255.285184 C62,256.233252 61.2261044,257 60.2713739,257 Z" mask="url(#how-to-use-data-illustration-b)"/>
    <polygon fill="#939598" points="37 233 71 233 71 188 37 188" mask="url(#how-to-use-data-illustration-b)"/>
    <polygon fill="#231F20" points="43 201 65 201 65 198 43 198" mask="url(#how-to-use-data-illustration-b)"/>
    <polygon fill="#231F20" points="43 212 65 212 65 209 43 209" mask="url(#how-to-use-data-illustration-b)"/>
    <polygon fill="#231F20" points="43 224 65 224 65 221 43 221" mask="url(#how-to-use-data-illustration-b)"/>
    <path fill="#00C718" d="M94,124 C94,146.642493 75.6424932,165 52.9990591,165 C30.3565658,165 12,146.642493 12,124 C12,101.357507 30.3565658,83 52.9990591,83 C75.6424932,83 94,101.357507 94,124" mask="url(#how-to-use-data-illustration-b)"/>
    <path fill="#231F20" d="M51.6239299,167 C50.7648598,167 49.8914878,166.981072 49,166.944161 L49.1411125,163.583417 C86.1793322,165.128924 92.414026,132.39408 92.6609729,131 L96,131.577317 C95.9370714,131.939797 89.3534102,167 51.6239299,167" mask="url(#how-to-use-data-illustration-b)"/>
    <polygon fill="#FFF" points="48 146 59 146 59 118 48 118" mask="url(#how-to-use-data-illustration-b)"/>
    <polygon fill="#FFF" points="33 146 44 146 44 128 33 128" mask="url(#how-to-use-data-illustration-b)"/>
    <polygon fill="#FFF" points="64 146 75 146 75 104 64 104" mask="url(#how-to-use-data-illustration-b)"/>
    <path fill="#231F20" d="M82,120 L78.6794285,120 L78.6794285,113.319948 L72,113.319948 L72,110 L80.3397143,110 C81.2567,110 82,110.742436 82,111.659507 L82,120 Z" mask="url(#how-to-use-data-illustration-b)"/>
    <path fill="#231F20" d="M19.0013551,146 L17,143.301678 L25.344793,137.076818 C25.6342024,136.861255 25.9839446,136.74591 26.3449993,136.74591 L50.6431286,136.74591 L78.6903815,110 L81,112.435486 L52.4672559,139.642776 C52.1561644,139.94154 51.7423185,140.106994 51.3124466,140.106994 L26.8993077,140.106994 L19.0013551,146 Z" mask="url(#how-to-use-data-illustration-b)"/>
    <polygon fill="#231F20" points="25 104 32 104 32 101 25 101" mask="url(#how-to-use-data-illustration-b)"/>
    <polygon fill="#231F20" points="35 104 55 104 55 101 35 101" mask="url(#how-to-use-data-illustration-b)"/>
    <polygon fill="#231F20" points="25 114 32 114 32 111 25 111" mask="url(#how-to-use-data-illustration-b)"/>
    <polygon fill="#231F20" points="35 114 55 114 55 111 35 111" mask="url(#how-to-use-data-illustration-b)"/>
    <polygon fill="#231F20" points="25 123 32 123 32 120 25 120" mask="url(#how-to-use-data-illustration-b)"/>
    <polygon fill="#231F20" points="35 123 55 123 55 120 35 120" mask="url(#how-to-use-data-illustration-b)"/>
    <path fill="#FFF" d="M118.937358,304.156222 L118.937358,294.952707 C119.875472,294.423661 122.486698,293.729288 124.064393,292.887537 L130.646307,299.396696 C131.264158,300.014546 132.306192,300.014546 132.91932,299.396696 L142.262672,290.068477 C142.878634,289.451571 142.885247,288.449217 142.267396,287.83609 L135.764839,281.5924 C136.607535,280.013764 137.305689,278.749721 137.83568,276.875386 L147.042047,276.875386 C147.91403,276.875386 148,275.634017 148,274.758256 L148,261.571779 C148,260.697908 147.91403,259.062588 147.042047,259.062588 L137.83568,259.062588 C137.305689,258.124476 136.612259,256.119769 135.770507,254.543022 L142.278732,248.262487 C142.894694,247.647471 142.894694,246.767932 142.278732,246.146302 L132.948607,236.880435 C132.334534,236.259751 131.336902,236.289037 130.72094,236.911611 L124.064393,243.431161 C122.486698,242.590356 119.875472,241.912988 118.937358,241.375439 L118.937358,232.174758 C118.937358,231.301832 118.519789,230 117.644972,230 L104.451857,230 C103.584597,230 102.061697,231.301832 102.061697,232.174758 L102.061697,241.375439 C101.125472,241.912988 99.0612435,242.606416 97.4920517,243.445332 L91.182219,236.939953 C90.5662569,236.317379 89.6649872,236.317379 89.0471356,236.939953 L79.7699148,246.260614 C79.1520633,246.882243 79.1775709,247.880818 79.7944778,248.497724 L86.3225424,254.543022 C85.4798458,256.119769 84.7930292,258.124476 84.263982,259.062588 L75.0632841,259.062588 C74.1894115,259.062588 73,260.697908 73,261.571779 L73,274.758256 C73,275.634017 74.1894115,276.875386 75.0632841,276.875386 L84.263982,276.875386 C84.7930292,278.749721 85.493072,280.013764 86.3367134,281.5924 L79.8190407,287.972131 C79.2011891,288.583368 79.2011891,289.518646 79.8190407,290.136497 L89.1520003,299.428816 C89.7651282,300.048556 90.7703179,300.034385 91.3834459,299.412756 L97.4920517,292.895095 C99.0612435,293.73968 101.125472,294.423661 102.061697,294.952707 L102.061697,304.156222 C102.061697,305.031038 103.584597,304.999862 104.451857,304.999862 L117.644972,304.999862 C118.519789,304.999862 118.937358,305.031038 118.937358,304.156222" mask="url(#how-to-use-data-illustration-b)"/>
    <path fill="#231F20" d="M103.272263,303.646516 C103.421789,303.653099 103.598587,303.656861 103.801717,303.656861 L116.725857,303.656861 L116.726797,295.326755 C116.726797,294.724895 117.051241,294.167235 117.576933,293.871008 C118.128017,293.560674 118.94712,293.269149 119.896,292.931543 C120.86839,292.586415 121.970558,292.194266 122.716308,291.796475 C123.362374,291.453227 124.157025,291.567956 124.678016,292.083298 L131.229896,298.561747 L140.365099,289.354243 L133.991898,283.234088 C133.452099,282.715925 133.322322,281.901535 133.674978,281.241371 L133.788768,281.026958 C134.547684,279.606947 135.147669,278.484104 135.60189,276.876952 C135.805961,276.158482 136.462371,275.661008 137.210943,275.661008 L145.644595,275.661008 C145.652118,275.543458 145.65682,275.400516 145.65682,275.22466 L145.65682,262.098489 C145.65682,261.735493 145.638953,261.466537 145.615442,261.271873 L137.210943,261.271873 C136.608136,261.271873 136.05235,260.949315 135.756119,260.424569 C135.462709,259.905465 135.169299,259.211446 134.829809,258.4074 C134.483736,257.589248 134.092522,256.662009 133.68062,255.890877 C133.327964,255.231653 133.455861,254.419143 133.993779,253.90004 L140.319018,247.795872 L131.235538,238.774568 L124.672373,245.23609 C124.151383,245.744849 123.359552,245.859578 122.716308,245.51633 C121.981843,245.125122 120.8919,244.740496 119.930795,244.401951 C118.964047,244.062465 118.128958,243.767177 117.566589,243.444619 C117.046539,243.14651 116.726797,242.593552 116.726797,241.994514 L116.726797,232.835911 C116.726797,232.667579 116.692002,232.48514 116.649683,232.343139 L104.070676,232.343139 C103.836512,232.433418 103.421789,232.782308 103.272263,233.008005 L103.272263,241.994514 C103.272263,242.593552 102.952521,243.14651 102.433411,243.444619 C101.901136,243.75025 101.179837,244.050239 100.345687,244.398189 C99.524704,244.739556 98.5946324,245.126062 97.8404186,245.530437 C97.1811869,245.881208 96.3705481,245.754253 95.8514384,245.220103 L89.7058185,238.883655 L80.6750018,247.955741 L87.0698319,253.87653 C87.6265583,254.392812 87.7657399,255.220368 87.4074413,255.890877 C86.9945986,256.662949 86.6043259,257.591129 86.2601336,258.410221 C85.9234646,259.213327 85.6319356,259.904525 85.3394661,260.421747 C85.043235,260.948374 84.4865086,261.271873 83.8837019,261.271873 L74.949748,261.271873 C74.7184056,261.465597 74.3864387,261.946144 74.3375371,262.181245 L74.3431796,275.134381 C74.4202937,275.302714 74.6713848,275.569789 74.8397193,275.661008 L83.8837019,275.661008 C84.6322732,275.661008 85.2896241,276.158482 85.492754,276.877892 C85.9450942,278.481282 86.5441393,279.601305 87.3030551,281.017554 L87.4215476,281.24043 C87.7723228,281.895892 87.6481879,282.7037 87.1168527,283.222804 L80.7474139,289.456747 L89.8487618,298.519429 L95.8316896,292.135961 C96.3507994,291.583943 97.1764848,291.447584 97.8432399,291.806819 C98.6115599,292.220597 99.5594994,292.610865 100.395529,292.956934 C101.205228,293.289838 101.903957,293.578542 102.422126,293.871008 C102.947819,294.168176 103.272263,294.724895 103.272263,295.326755 L103.272263,303.646516 Z M117.288226,307 L117.278821,307 C117.277881,307 117.197946,306.99906 117.197005,306.99906 L103.801717,307 C101.231559,307 99.9281426,306.154576 99.9281426,304.489119 L99.9281426,296.38377 C99.6789323,296.277504 99.4024499,296.163715 99.120325,296.047105 C98.582407,295.825169 98.0012298,295.585366 97.4256951,295.323933 L92.1903981,300.909938 C90.9086108,302.211458 88.7832702,302.19265 87.5607292,300.96072 L78.2797618,291.717481 C77.6619083,291.099635 77.3233585,290.292767 77.3261797,289.443582 C77.329001,288.599098 77.6684912,287.796933 78.2844638,287.189431 L83.8837019,281.708752 C83.4341829,280.846401 83.0241615,280.000036 82.6649225,279.004147 L74.7249885,279.004147 C72.9494828,279.004147 71,277.025536 71,275.22466 L71,262.098489 C71,260.528013 72.7407104,257.929675 74.7249885,257.929675 L82.8323166,257.929675 C82.9414048,257.677646 83.0580164,257.399286 83.1774493,257.115284 C83.3956259,256.598061 83.6297895,256.039461 83.8837019,255.483682 L78.2985701,250.310514 C76.9838682,248.997709 76.9716428,246.940103 78.2233368,245.679021 L87.4610451,236.400046 C88.6835861,235.165294 90.7346338,235.165294 91.9581153,236.403807 L97.4068867,242.021786 C97.9673748,241.765996 98.5344458,241.529014 99.0601384,241.31084 C99.3648333,241.184826 99.6620048,241.059752 99.9281426,240.944082 L99.9281426,232.835911 C99.9281426,230.932532 102.285766,229 103.979456,229 L117.112368,229 C119.033638,229 120.070917,230.976731 120.070917,232.835911 L120.070917,240.899883 C120.375612,241.013672 120.718864,241.134044 121.041427,241.248773 C121.724169,241.488576 122.463336,241.749069 123.158303,242.038713 L128.95785,236.356787 C130.152179,235.150248 132.314195,235.114512 133.533915,236.344562 L142.811121,245.556768 C144.086325,246.845123 144.083504,248.765429 142.815823,250.033095 L137.193075,255.459231 C137.450749,256.019712 137.689614,256.583015 137.910612,257.10588 C138.030986,257.393644 138.149478,257.673884 138.261387,257.929675 L146.375298,257.929675 C147.355212,257.929675 149,258.470407 149,262.098489 L149,275.22466 C149,278.512316 147.355212,279.004147 146.375298,279.004147 L138.429722,279.004147 C138.071423,279.996275 137.665164,280.839818 137.218466,281.696527 L142.780087,287.037086 C143.412047,287.664336 143.750597,288.474965 143.752478,289.339197 C143.754358,290.209071 143.416749,291.028164 142.802657,291.64507 L133.498179,300.933448 C132.287864,302.154094 130.099515,302.160677 128.871332,300.933448 L123.153601,295.278794 C122.452051,295.57126 121.70442,295.837394 121.016035,296.0819 C120.701936,296.192867 120.369029,296.311358 120.070917,296.424207 L120.070917,304.489119 C120.070917,305.74644 119.469991,306.362406 118.965928,306.656752 C118.38193,306.997179 117.776302,307 117.288226,307 Z" mask="url(#how-to-use-data-illustration-b)"/>
    <path fill="#BCBEC0" d="M110.997126,281 C104.372505,281 99,275.625264 99,269.000479 C99,262.375693 104.372505,257 110.997126,257 C117.628453,257 123,262.375693 123,269.000479 C123,275.625264 117.628453,281 110.997126,281" mask="url(#how-to-use-data-illustration-b)"/>
    <path fill="#FFF" d="M181.094027,318.688129 L181.094027,313.166117 C181.094027,312.84928 183.067309,312.432489 184.013842,311.927059 L187.887742,315.832826 C188.258617,316.202469 188.844656,316.202469 189.213644,315.832826 L194.804138,310.234434 C195.174069,309.864791 195.169351,309.263178 194.797532,308.895421 L190.887772,305.027372 C191.391709,304.079691 191.806938,303.008481 192.124966,302.073058 L197.655063,302.073058 C198.178818,302.073058 197.950442,301.574229 197.950442,301.04711 L197.950442,293.134678 C197.950442,292.610388 198.178818,291.779635 197.655063,291.779635 L192.124966,291.779635 C191.806938,290.843269 191.390766,289.938964 190.884941,288.992226 L194.795645,285.186412 C195.164632,284.81677 195.164632,284.270792 194.795645,283.897377 L189.190995,278.327274 C188.822951,277.955745 188.222756,277.968003 187.852825,278.342361 L184.013842,282.2519 C183.067309,281.747413 181.094027,281.338166 181.094027,281.014728 L181.094027,275.492716 C181.094027,274.971256 180.526861,274 180.000275,274 L172.077892,274 C171.556968,274 170.792569,274.971256 170.792569,275.492716 L170.792569,281.014728 C169.856416,281.338166 168.915544,281.754014 167.973729,282.257558 L164.147015,278.35462 C163.77614,277.979319 163.215581,277.979319 162.845649,278.35462 L157.263648,283.946411 C156.893717,284.320769 156.904098,284.91861 157.274029,285.289196 L161.192282,288.992226 C160.686458,289.938964 160.272172,290.843269 159.954144,291.779635 L154.428766,291.779635 C153.903123,291.779635 153,292.610388 153,293.134678 L153,301.04711 C153,301.574229 153.903123,302.073058 154.428766,302.073058 L159.954144,302.073058 C160.272172,303.008481 160.69212,304.079691 161.198888,305.027372 L157.285354,308.916166 C156.914478,309.282037 156.914478,309.875163 157.285354,310.245749 L162.88906,315.835655 C163.257104,316.20907 163.861073,316.208127 164.230061,315.834712 L167.973729,311.927059 C168.915544,312.433432 169.856416,312.84928 170.792569,313.166117 L170.792569,318.688129 C170.792569,319.213361 171.556968,318.916327 172.077892,318.916327 L180.000275,318.916327 C180.526861,318.916327 181.094027,319.213361 181.094027,318.688129" mask="url(#how-to-use-data-illustration-b)"/>
    <path fill="#231F20" d="M171.993206,316.58888 L178.887896,316.58888 L178.887896,312.544026 C178.887896,311.168906 180.145989,310.747665 181.361928,310.339528 C181.816265,310.187882 182.381142,309.998791 182.667797,309.846208 C183.316984,309.499854 184.116993,309.618737 184.635032,310.142949 L187.957785,313.492287 L192.467436,308.975642 L189.102528,305.646898 C188.580743,305.129239 188.459898,304.330753 188.805569,303.682041 C189.187775,302.963122 189.565297,302.059793 189.92783,300.996392 C190.157341,300.320534 190.790603,299.868401 191.504428,299.868401 L195.62157,299.868401 L195.62157,292.97689 L191.504428,292.97689 C190.790603,292.97689 190.157341,292.523822 189.92783,291.848899 C189.660848,291.066326 189.303936,290.265967 188.804633,289.330811 C188.455214,288.677419 188.579806,287.870507 189.110959,287.355657 L192.429965,284.122394 L187.940923,279.660043 L184.640652,283.02155 C184.12355,283.54857 183.319795,283.672134 182.667797,283.323907 C182.383953,283.17226 181.821886,282.985978 181.369422,282.835267 C180.150673,282.428067 178.887896,282.008698 178.887896,280.627026 L178.887896,275.327808 L172.011005,275.327808 C172.004447,275.337169 171.998827,275.344657 171.993206,275.353082 L171.993206,280.627026 C171.993206,281.33752 171.543552,281.968446 170.871882,282.199661 C170.037212,282.487977 169.17725,282.868031 168.314477,283.329524 C167.661542,283.67775 166.857786,283.55325 166.339748,283.025294 L163.079759,279.701231 L158.604768,284.184176 L161.942509,287.337871 C162.487715,287.852721 162.6198,288.66993 162.266635,289.330811 C161.770142,290.259415 161.414166,291.059773 161.145311,291.848899 C160.9158,292.523822 160.281601,292.97689 159.568713,292.97689 L154.348983,292.97689 C154.342426,292.982507 154.336805,292.988123 154.331184,292.99374 L154.331184,299.868401 L159.568713,299.868401 C160.281601,299.868401 160.9158,300.320534 161.145311,300.996392 C161.502224,302.043879 161.881619,302.947208 162.273192,303.680168 C162.6198,304.327944 162.499893,305.126431 161.979044,305.645026 L158.616009,308.985939 L163.135965,313.493223 L166.326633,310.163543 C166.844671,309.624354 167.659669,309.493301 168.319161,309.84808 C169.178187,310.31051 170.033465,310.686819 170.862514,310.967646 C171.538868,311.196989 171.993206,311.830723 171.993206,312.544026 L171.993206,316.58888 Z M180.244351,320 C180.071047,320 179.867766,319.975662 179.650433,319.942898 C179.590479,319.932601 179.525842,319.919496 179.462141,319.916688 L171.603506,319.916688 C171.536058,319.919496 171.456432,319.933537 171.378679,319.943834 C171.149168,319.974726 170.921531,320 170.725745,320 C169.371163,320 168.662022,319.006806 168.662022,318.025782 L168.662022,313.693547 C168.402534,313.587768 168.143983,313.472629 167.882622,313.351873 L165.01608,316.343624 C163.996865,317.378006 162.277876,317.36022 161.296132,316.36141 L155.742909,310.823488 C155.247354,310.328295 154.975688,309.672095 154.977561,308.975642 C154.980372,308.281998 155.252974,307.630478 155.74853,307.140901 L158.78744,304.121068 C158.657227,303.826199 158.527952,303.517288 158.402424,303.195273 L154.083875,303.195273 C152.826718,303.195273 151,302.15153 151,300.513369 L151,292.659555 C151,291.224526 152.614069,289.650019 154.083875,289.650019 L158.421159,289.650019 C158.524205,289.404762 158.634745,289.156698 158.752779,288.905825 L155.763519,286.078827 C154.717137,285.032276 154.71058,283.381009 155.713869,282.367221 L161.259598,276.811514 C161.746723,276.318193 162.396847,276.043918 163.084442,276.043918 C163.772038,276.043918 164.421225,276.317257 164.914908,276.816194 L167.870444,279.830411 C168.134615,279.707783 168.399724,279.591708 168.662022,279.481249 L168.662022,275.146206 C168.662022,273.772959 170.088735,272 171.603506,272 L179.467761,272 C181.122112,272 182.21908,273.893715 182.21908,275.146206 L182.21908,279.609494 C182.291212,279.632896 182.360533,279.656298 182.422361,279.676892 C182.625642,279.744291 182.837354,279.815434 183.049066,279.889385 L186.07486,276.808706 C187.071592,275.799598 188.794328,275.79679 189.776072,276.789048 L195.329295,282.31012 C196.34851,283.337013 196.346636,284.931178 195.332105,285.945902 L192.310058,288.887103 C192.431839,289.146401 192.546126,289.400082 192.650108,289.650019 L196.993013,289.650019 C197.559764,289.650019 198.07874,289.872808 198.450641,290.279072 C199.095144,290.982078 199.016455,291.877918 198.969616,292.412427 C198.962122,292.500419 198.951817,292.583731 198.951817,292.659555 L198.951817,300.513369 C198.951817,300.581703 198.963058,300.649102 198.968679,300.710884 C199.009897,301.093746 199.097018,301.889424 198.501227,302.552177 C198.285768,302.793689 197.80239,303.195273 196.993013,303.195273 L192.670717,303.195273 C192.546126,303.517288 192.418724,303.824327 192.290385,304.117324 L195.329295,307.12218 C195.823914,307.611756 196.099327,308.265148 196.1012,308.963473 C196.104011,309.660862 195.834218,310.317062 195.341473,310.809447 L189.792934,316.36609 C188.810253,317.349923 187.105316,317.350859 186.120762,316.368898 L183.05656,313.278858 C182.842038,313.355618 182.626578,313.426761 182.420487,313.496031 C182.35866,313.517561 182.290275,313.539092 182.21908,313.564366 L182.21908,318.025782 C182.21908,318.628625 181.983948,319.16407 181.556777,319.53289 C181.309468,319.745383 180.880423,320 180.244351,320 Z" mask="url(#how-to-use-data-illustration-b)"/>
    <path fill="#BCBEC0" d="M174.997676,304 C171.13301,304 168,300.864825 168,297 C168,293.135175 171.13301,290 174.997676,290 C178.86606,290 182,293.135175 182,297 C182,300.864825 178.86606,304 174.997676,304" mask="url(#how-to-use-data-illustration-b)"/>
    <polyline fill="#FFF" points="226 305 226 259 261 259 261 305" mask="url(#how-to-use-data-illustration-b)"/>
    <path fill="#231F20" d="M262,306 L258.645477,306 L258.645477,261.384628 L227.354523,261.384628 L227.354523,306 L224,306 L224,259.692314 C224,258.757113 224.750168,258 225.677733,258 L260.32321,258 C261.249832,258 262,258.757113 262,259.692314 L262,306 Z" mask="url(#how-to-use-data-illustration-b)"/>
    <polyline fill="#00C718" points="270 306 270 229 305 229 305 306" mask="url(#how-to-use-data-illustration-b)"/>
    <path fill="#231F20" d="M306,306 L302.645477,306 L302.645477,230.376661 L271.354523,230.376661 L271.354523,306 L268,306 L268,228.688331 C268,227.755331 268.750168,227 269.677733,227 L304.32321,227 C305.249832,227 306,227.755331 306,228.688331 L306,306 Z" mask="url(#how-to-use-data-illustration-b)"/>
    <path fill="#231F20" d="M361,317 L213.681233,317 C212.752678,317 212,316.244669 212,315.31262 L212,238 L215.361521,238 L215.361521,313.622389 L361,313.622389 L361,317 Z" mask="url(#how-to-use-data-illustration-b)"/>
    <path fill="#00C718" d="M223.222874,111.265616 C229.798202,111.265616 235.897647,113.103474 240.934632,116.595026 C244.349072,112.69812 249.043573,109.874881 254.3729,108.987279 C254.150569,107.487374 254.036092,105.909626 254.036092,104.348016 C254.036092,87.0487944 268.015523,73 285.255182,73 C302.496732,73 316.47711,87.0079742 316.47711,104.312892 C316.47711,106.86368 316.162062,109.331878 315.590623,111.706095 C317.897192,111.157395 320.304992,111.269413 322.783748,111.269413 C340.026245,111.269413 354,124.159104 354,143 L192,143 C192,124.159104 205.976593,111.265616 223.222874,111.265616" mask="url(#how-to-use-data-illustration-b)"/>
    <path fill="#D1D3D4" d="M316,111 C316,111 312.232723,114.297959 311,115" mask="url(#how-to-use-data-illustration-b)"/>
    <path fill="#231F20" d="M311.578074,117 L310,113.794336 C310.81545,113.343936 313.416438,111.229194 314.864846,110 L317,112.822367 C316.331504,113.388671 312.926592,116.25679 311.578074,117" mask="url(#how-to-use-data-illustration-b)"/>
    <path fill="#D1D3D4" d="M241,116 C241,116 242.917808,118.82656 243,121" mask="url(#how-to-use-data-illustration-b)"/>
    <path fill="#231F20" d="M241.590255,121 C241.541339,119.530385 240.425858,117.370496 240,116.662595 L242.94648,115 C243.14694,115.334003 244.912718,118.326117 245,120.893304 L241.590255,121 Z" mask="url(#how-to-use-data-illustration-b)"/>
    <path fill="#D1D3D4" d="M327.839784 42.0459773C330.96519 42.0459773 333.865264 42.9472873 336.258109 44.6001598 337.88068 42.7561003 340.113247 41.4366278 342.64657 41.0156397 342.540975 40.3064585 342.48535 39.5661977 342.48535 38.8287622 342.48535 30.6425697 349.130254 24 357.324191 24 365.51907 24 372.165861 30.6303262 372.165861 38.8174605 372.165861 40.024858 372.015011 41.1945832 371.74254 42.3162761 372.839025 42.0582208 373.98265 42.047861 375.161159 42.047861 383.358867 42.047861 390 48.5877736 390 57L313 57C313 48.5877736 319.643019 42.0459773 327.839784 42.0459773M372 42C372 42 370.493344 43.6491979 370 44" mask="url(#how-to-use-data-illustration-b)"/>
    <path fill="#231F20" d="M370.462893,46 L369,42.736657 C369.264765,42.5732313 370.257856,41.7064543 371.016492,41 L373,43.8682251 C372.448184,44.3833264 371.094049,45.6193628 370.462893,46" mask="url(#how-to-use-data-illustration-b)"/>
    <path fill="#D1D3D4" d="M337,45 C337,45 337.869,46.130038 337.906,47" mask="url(#how-to-use-data-illustration-b)"/>
    <path fill="#231F20" d="M335.628734,47 C335.614509,46.6267782 335.248459,45.8761506 335,45.5012552 L337.909436,44 C338.083926,44.2627615 338.952584,45.6343096 339,46.9037657 L335.628734,47 Z" mask="url(#how-to-use-data-illustration-b)"/>
    <path fill="#00C718" d="M189.367266,31.1592082 C183.967361,31.1592082 178.960539,32.6561322 174.825127,35.4991566 C172.022405,32.3262056 168.16736,30.0280314 163.79231,29.3031355 C163.97417,28.0805219 164.068888,26.7975789 164.068888,25.525005 C164.068888,11.4399682 152.592789,0 138.438996,0 C124.284255,0 112.806261,11.4079182 112.806261,25.4976682 C112.806261,27.5762056 113.063896,29.5849871 113.5337,31.5183568 C111.640276,31.0705993 109.6635,31.1620361 107.628945,31.1620361 C93.473258,31.1620361 82,41.6584144 82,57 L215,57 C215,41.6584144 203.524848,31.1592082 189.367266,31.1592082" mask="url(#how-to-use-data-illustration-b)"/>
    <path fill="#D1D3D4" d="M113,32 C113,32 116.013437,34.4743231 117,35" mask="url(#how-to-use-data-illustration-b)"/>
    <path fill="#231F20" d="M116.442828,36 C115.325004,35.4047581 112.545627,33.1432271 112,32.6965528 L114.108493,30 C115.359165,31.0254086 117.392693,32.6140152 118,32.9363975 L116.442828,36 Z" mask="url(#how-to-use-data-illustration-b)"/>
    <path fill="#D1D3D4" d="M174,35 C174,35 173.040488,37.2614466 173,39" mask="url(#how-to-use-data-illustration-b)"/>
    <path fill="#231F20" d="M174.64962,40 L171,39.8968037 C171.077018,37.7525114 172.66564,35.2757991 172.846375,35 L175.998973,36.6392694 L174.422674,35.8200913 L176,36.6374429 C175.496817,37.4073059 174.685562,39.0018265 174.64962,40" mask="url(#how-to-use-data-illustration-b)"/>
    <polyline fill="#1F2D4E" points="314 305 314 201 348 201 348 305" mask="url(#how-to-use-data-illustration-b)"/>
    <path fill="#231F20" d="M349,306 L345.651179,306 L345.651179,203.366718 L315.346937,203.366718 L315.346937,306 L312,306 L312,201.683832 C312,200.752895 312.748893,200 313.67394,200 L347.32606,200 C348.250165,200 349,200.752895 349,201.683832 L349,306 Z" mask="url(#how-to-use-data-illustration-b)"/>
  </g>
</svg>
