<svg xmlns="http://www.w3.org/2000/svg" width="370" height="370" viewBox="0 0 370 370">
  <g fill="none" transform="translate(6)">
    <path fill="#1E2C4F" d="M189.910732,13.7340896 C189.910732,13.7340896 160.394884,-1.35222899 136.673072,46.0904035 C112.952252,93.5320438 105.045973,80.3535899 44.4258789,134.384953 C-16.1942154,188.416317 -10.9230322,252.989054 44.4258789,285.935685 C99.7737979,318.881324 144.580343,279.34497 194.658071,337.329969 C244.735799,395.314967 327.758173,370.275607 344.890263,299.112155 C362.022352,227.949694 310.628068,176.555411 346.20781,108.028046 C381.788545,39.5016726 333.030349,27.6417586 284.269176,25.0056709 C235.51098,22.3695833 208.184762,24.0423134 189.910732,13.7340896 Z"/>
    <circle cx="185.63" cy="348.385" r="5.817" fill="#00C900"/>
    <circle cx="261.195" cy="7.875" r="7.804" fill="#00C900"/>
    <g transform="translate(68 88)">
      <path fill="#E3EAFF" d="M217.966,157.578 L16.712,157.578 C11.251,157.578 6.823,153.15 6.823,147.688 L6.823,10.418 C6.823,4.956 11.25,0.529 16.712,0.529 L217.965,0.529 C223.427,0.529 227.854,4.956 227.854,10.418 L227.854,147.689 C227.854,153.15 223.428,157.578 217.966,157.578 Z"/>
      <path fill="#6DB8FF" d="M217.108,155.511 L17.569,155.511 C13.241,155.511 9.732,152.002 9.732,147.674 L9.732,10.433 C9.732,6.105 13.241,2.596 17.569,2.596 L217.108,2.596 C221.436,2.596 224.945,6.105 224.945,10.433 L224.945,147.674 C224.945,152.002 221.437,155.511 217.108,155.511 Z"/>
      <path fill="#2F6DFF" d="M210.811,142.018 L23.868,142.018 C21.201,142.018 19.039,139.856 19.039,137.189 L19.039,14.621 C19.039,11.954 21.202,9.791 23.868,9.791 L210.811,9.791 C213.478,9.791 215.64,11.954 215.64,14.621 L215.64,137.188 C215.64,139.855 213.478,142.018 210.811,142.018 Z"/>
      <path fill="#E3EAFF" d="M1.458,149.434 C0.821,150.609 0.427,151.932 0.427,153.361 C0.427,157.938 4.136,161.649 8.716,161.649 L225.966,161.649 C230.543,161.649 234.254,157.938 234.254,153.361 C234.254,151.932 233.858,150.609 233.224,149.434 L1.458,149.434 Z"/>
      <path fill="#C8D6F2" d="M1.458,157.286 C2.86,159.873 5.566,161.648 8.716,161.648 L225.966,161.648 C229.113,161.648 231.82,159.873 233.224,157.286 L1.458,157.286 Z"/>
    </g>
    <path fill="#0CF" d="M112.095,114.177 L97.464,114.177 C96.685,114.177 96.055,113.546 96.055,112.767 C96.055,111.989 96.685,111.359 97.464,111.359 L112.095,111.359 C112.874,111.359 113.504,111.989 113.504,112.767 C113.504,113.546 112.874,114.177 112.095,114.177 Z"/>
    <path fill="#E3EAFF" d="M223.338,114.177 L208.706,114.177 C207.928,114.177 207.297,113.546 207.297,112.767 C207.297,111.989 207.928,111.359 208.706,111.359 L223.338,111.359 C224.116,111.359 224.747,111.989 224.747,112.767 C224.747,113.546 224.116,114.177 223.338,114.177 Z"/>
    <path fill="#0CF" d="M202.689,114.177 L118.984,114.177 C118.205,114.177 117.575,113.546 117.575,112.767 C117.575,111.989 118.205,111.359 118.984,111.359 L202.689,111.359 C203.465,111.359 204.098,111.989 204.098,112.767 C204.099,113.546 203.466,114.177 202.689,114.177 Z"/>
    <path fill="#FF56A9" d="M145.686,119.999 L118.985,119.999 C118.206,119.999 117.576,119.369 117.576,118.591 C117.576,117.813 118.206,117.182 118.985,117.182 L145.686,117.182 C146.465,117.182 147.095,117.812 147.095,118.591 C147.095,119.369 146.465,119.999 145.686,119.999 Z"/>
    <path fill="#E3EAFF" d="M189.602 119.999L151.123 119.999C150.344 119.999 149.714 119.369 149.714 118.591 149.714 117.813 150.344 117.182 151.123 117.182L189.602 117.182C190.379 117.182 191.012 117.812 191.012 118.591 191.011 119.369 190.379 119.999 189.602 119.999zM202.725 119.999L193.874 119.999C193.095 119.999 192.465 119.369 192.465 118.591 192.465 117.813 193.095 117.182 193.874 117.182L202.725 117.182C203.504 117.182 204.134 117.812 204.134 118.591 204.134 119.369 203.504 119.999 202.725 119.999zM202.689 148.349L118.984 148.349C118.205 148.349 117.575 147.718 117.575 146.94 117.575 146.162 118.205 145.532 118.984 145.532L202.689 145.532C203.465 145.532 204.098 146.162 204.098 146.94 204.099 147.718 203.466 148.349 202.689 148.349z"/>
    <path fill="#0CF" d="M112.095 154.172L97.464 154.172C96.685 154.172 96.055 153.542 96.055 152.763 96.055 151.985 96.685 151.354 97.464 151.354L112.095 151.354C112.874 151.354 113.504 151.985 113.504 152.763 113.504 153.542 112.874 154.172 112.095 154.172zM223.338 154.172L208.706 154.172C207.928 154.172 207.297 153.542 207.297 152.763 207.297 151.985 207.928 151.354 208.706 151.354L223.338 151.354C224.116 151.354 224.747 151.985 224.747 152.763 224.747 153.542 224.116 154.172 223.338 154.172z"/>
    <path fill="#E3EAFF" d="M145.686,154.172 L118.985,154.172 C118.206,154.172 117.576,153.542 117.576,152.763 C117.576,151.985 118.206,151.354 118.985,151.354 L145.686,151.354 C146.465,151.354 147.095,151.985 147.095,152.763 C147.095,153.542 146.465,154.172 145.686,154.172 Z"/>
    <path fill="#FF56A9" d="M189.602 154.172L151.123 154.172C150.344 154.172 149.714 153.542 149.714 152.763 149.714 151.985 150.344 151.354 151.123 151.354L189.602 151.354C190.379 151.354 191.012 151.985 191.012 152.763 191.011 153.542 190.379 154.172 189.602 154.172zM202.725 154.172L193.874 154.172C193.095 154.172 192.465 153.542 192.465 152.763 192.465 151.985 193.095 151.354 193.874 151.354L202.725 151.354C203.504 151.354 204.134 151.985 204.134 152.763 204.134 153.542 203.504 154.172 202.725 154.172zM223.446 125.822L118.985 125.822C118.206 125.822 117.576 125.192 117.576 124.414 117.576 123.636 118.206 123.005 118.985 123.005L223.446 123.005C224.225 123.005 224.855 123.636 224.855 124.414 224.855 125.191 224.226 125.822 223.446 125.822z"/>
    <path fill="#0CF" d="M201.992,131.645 L176.794,131.645 C176.213,131.645 175.743,131.174 175.743,130.594 L175.743,129.879 C175.743,129.299 176.213,128.828 176.794,128.828 L201.992,128.828 C202.573,128.828 203.044,129.299 203.044,129.879 L203.044,130.594 C203.044,131.173 202.573,131.645 201.992,131.645 Z"/>
    <path fill="#E3EAFF" d="M153.685,131.645 L118.985,131.645 C118.206,131.645 117.576,131.015 117.576,130.237 C117.576,129.459 118.206,128.828 118.985,128.828 L153.685,128.828 C154.462,128.828 155.093,129.459 155.093,130.237 C155.093,131.014 154.462,131.645 153.685,131.645 Z"/>
    <path fill="#0CF" d="M172.152,131.645 L158.392,131.645 C157.615,131.645 156.984,131.015 156.984,130.237 C156.984,129.459 157.615,128.828 158.392,128.828 L172.152,128.828 C172.929,128.828 173.562,129.459 173.562,130.237 C173.562,131.014 172.929,131.645 172.152,131.645 Z"/>
    <path fill="#E3EAFF" d="M112.095 137.273L97.464 137.273C96.685 137.273 96.055 136.642 96.055 135.864 96.055 135.086 96.685 134.456 97.464 134.456L112.095 134.456C112.874 134.456 113.504 135.086 113.504 135.864 113.504 136.643 112.874 137.273 112.095 137.273zM223.446 137.273L118.985 137.273C118.206 137.273 117.576 136.642 117.576 135.864 117.576 135.086 118.206 134.456 118.985 134.456L223.446 134.456C224.225 134.456 224.855 135.086 224.855 135.864 224.855 136.643 224.226 137.273 223.446 137.273zM112.095 159.564L97.464 159.564C96.685 159.564 96.055 158.934 96.055 158.155 96.055 157.377 96.685 156.746 97.464 156.746L112.095 156.746C112.874 156.746 113.504 157.377 113.504 158.155 113.504 158.934 112.874 159.564 112.095 159.564zM212.276 159.564L176.978 159.564C176.296 159.564 175.743 159.01 175.743 158.327L175.743 157.984C175.743 157.3 176.297 156.747 176.978 156.747L212.276 156.747C212.96 156.747 213.513 157.301 213.513 157.984L213.513 158.327C213.514 159.011 212.96 159.564 212.276 159.564zM153.685 159.564L118.985 159.564C118.206 159.564 117.576 158.934 117.576 158.155 117.576 157.377 118.206 156.746 118.985 156.746L153.685 156.746C154.462 156.746 155.093 157.377 155.093 158.155 155.093 158.934 154.462 159.564 153.685 159.564zM172.152 159.564L158.392 159.564C157.615 159.564 156.984 158.934 156.984 158.155 156.984 157.377 157.615 156.746 158.392 156.746L172.152 156.746C172.929 156.746 173.562 157.377 173.562 158.155 173.562 158.934 172.929 159.564 172.152 159.564z"/>
    <path fill="#FFC359" d="M112.095,165.193 L97.464,165.193 C96.685,165.193 96.055,164.563 96.055,163.785 C96.055,163.007 96.685,162.376 97.464,162.376 L112.095,162.376 C112.874,162.376 113.504,163.007 113.504,163.785 C113.504,164.562 112.874,165.193 112.095,165.193 Z"/>
    <path fill="#0CF" d="M137.07 165.193L118.985 165.193C118.206 165.193 117.576 164.563 117.576 163.785 117.576 163.007 118.206 162.376 118.985 162.376L137.07 162.376C137.849 162.376 138.479 163.007 138.479 163.785 138.479 164.562 137.849 165.193 137.07 165.193zM97.464 143.096C96.685 143.096 96.055 142.466 96.055 141.687 96.055 140.909 96.685 140.278 97.464 140.278L112.095 140.278C112.874 140.278 113.504 140.909 113.504 141.687 113.504 142.465 112.874 143.096 112.095 143.096"/>
    <path fill="#E3EAFF" d="M217.105,143.096 L177.056,143.096 C176.33,143.096 175.743,142.507 175.743,141.781 L175.743,141.593 C175.743,140.867 176.331,140.278 177.056,140.278 L217.105,140.278 C217.833,140.278 218.42,140.867 218.42,141.593 L218.42,141.781 C218.421,142.507 217.833,143.096 217.105,143.096 Z"/>
    <path fill="#FFC359" d="M153.685 143.096L118.985 143.096C118.206 143.096 117.576 142.466 117.576 141.687 117.576 140.909 118.206 140.278 118.985 140.278L153.685 140.278C154.462 140.278 155.093 140.909 155.093 141.687 155.093 142.466 154.462 143.096 153.685 143.096zM172.152 143.096L158.392 143.096C157.615 143.096 156.984 142.466 156.984 141.687 156.984 140.909 157.615 140.278 158.392 140.278L172.152 140.278C172.929 140.278 173.562 140.909 173.562 141.687 173.562 142.466 172.929 143.096 172.152 143.096z"/>
    <path fill="#E3EAFF" d="M216.615 171.359L208.23 171.359C207.353 171.359 206.642 170.647 206.642 169.771 206.642 168.894 207.353 168.182 208.23 168.182L216.615 168.182C217.492 168.182 218.203 168.894 218.203 169.771 218.203 170.647 217.492 171.359 216.615 171.359zM202.689 171.179L118.984 171.179C118.205 171.179 117.575 170.549 117.575 169.771 117.575 168.993 118.205 168.362 118.984 168.362L202.689 168.362C203.465 168.362 204.098 168.993 204.098 169.771 204.099 170.549 203.466 171.179 202.689 171.179zM223.338 177.002L208.706 177.002C207.928 177.002 207.297 176.372 207.297 175.593 207.297 174.815 207.928 174.185 208.706 174.185L223.338 174.185C224.116 174.185 224.747 174.815 224.747 175.593 224.747 176.372 224.116 177.002 223.338 177.002zM145.686 177.002L118.985 177.002C118.206 177.002 117.576 176.372 117.576 175.593 117.576 174.815 118.206 174.185 118.985 174.185L145.686 174.185C146.465 174.185 147.095 174.815 147.095 175.593 147.095 176.372 146.465 177.002 145.686 177.002zM189.602 177.002L151.123 177.002C150.344 177.002 149.714 176.372 149.714 175.593 149.714 174.815 150.344 174.185 151.123 174.185L189.602 174.185C190.379 174.185 191.012 174.815 191.012 175.593 191.011 176.372 190.379 177.002 189.602 177.002zM202.725 177.002L193.874 177.002C193.095 177.002 192.465 176.372 192.465 175.593 192.465 174.815 193.095 174.185 193.874 174.185L202.725 174.185C203.504 174.185 204.134 174.815 204.134 175.593 204.134 176.372 203.504 177.002 202.725 177.002zM223.338 205.352L208.706 205.352C207.928 205.352 207.297 204.721 207.297 203.944 207.297 203.166 207.928 202.535 208.706 202.535L223.338 202.535C224.116 202.535 224.747 203.166 224.747 203.944 224.747 204.721 224.116 205.352 223.338 205.352zM202.689 205.352L118.984 205.352C118.205 205.352 117.575 204.721 117.575 203.944 117.575 203.166 118.205 202.535 118.984 202.535L202.689 202.535C203.465 202.535 204.098 203.166 204.098 203.944 204.099 204.721 203.466 205.352 202.689 205.352z"/>
    <path fill="#FF56A9" d="M112.095,211.174 L97.464,211.174 C96.685,211.174 96.055,210.544 96.055,209.767 C96.055,208.988 96.685,208.358 97.464,208.358 L112.095,208.358 C112.874,208.358 113.504,208.988 113.504,209.767 C113.504,210.544 112.874,211.174 112.095,211.174 Z"/>
    <path fill="#0CF" d="M214.308 211.174L208.248 211.174C207.723 211.174 207.297 210.748 207.297 210.224L207.297 209.308C207.297 208.784 207.723 208.358 208.248 208.358L214.308 208.358C214.832 208.358 215.259 208.784 215.259 209.308L215.259 210.224C215.259 210.748 214.832 211.174 214.308 211.174zM145.686 211.174L118.985 211.174C118.206 211.174 117.576 210.544 117.576 209.767 117.576 208.988 118.206 208.358 118.985 208.358L145.686 208.358C146.465 208.358 147.095 208.988 147.095 209.767 147.095 210.544 146.465 211.174 145.686 211.174z"/>
    <path fill="#E3EAFF" d="M189.602,211.174 L151.123,211.174 C150.344,211.174 149.714,210.544 149.714,209.767 C149.714,208.988 150.344,208.358 151.123,208.358 L189.602,208.358 C190.379,208.358 191.012,208.988 191.012,209.767 C191.011,210.544 190.379,211.174 189.602,211.174 Z"/>
    <path fill="#0CF" d="M202.725,211.174 L193.874,211.174 C193.095,211.174 192.465,210.544 192.465,209.767 C192.465,208.988 193.095,208.358 193.874,208.358 L202.725,208.358 C203.504,208.358 204.134,208.988 204.134,209.767 C204.134,210.544 203.504,211.174 202.725,211.174 Z"/>
    <path fill="#FF56A9" d="M112.095 182.825L97.464 182.825C96.685 182.825 96.055 182.194 96.055 181.415 96.055 180.637 96.685 180.007 97.464 180.007L112.095 180.007C112.874 180.007 113.504 180.637 113.504 181.415 113.504 182.194 112.874 182.825 112.095 182.825zM194.209 182.825L118.776 182.825C118.113 182.825 117.575 182.287 117.575 181.624L117.575 181.207C117.575 180.544 118.114 180.007 118.776 180.007L194.209 180.007C194.872 180.007 195.409 180.544 195.409 181.207L195.409 181.624C195.409 182.288 194.873 182.825 194.209 182.825z"/>
    <path fill="#E3EAFF" d="M112.095 188.646L97.464 188.646C96.685 188.646 96.055 188.017 96.055 187.238 96.055 186.461 96.685 185.83 97.464 185.83L112.095 185.83C112.874 185.83 113.504 186.461 113.504 187.238 113.504 188.018 112.874 188.646 112.095 188.646zM223.38 188.646L179.98 188.646C179.225 188.646 178.613 188.034 178.613 187.28L178.613 187.197C178.613 186.442 179.225 185.83 179.98 185.83L223.379 185.83C224.134 185.83 224.746 186.442 224.746 187.197L224.746 187.28C224.747 188.034 224.135 188.646 223.38 188.646zM153.685 188.646L118.985 188.646C118.206 188.646 117.576 188.017 117.576 187.238 117.576 186.461 118.206 185.83 118.985 185.83L153.685 185.83C154.462 185.83 155.093 186.461 155.093 187.238 155.093 188.018 154.462 188.646 153.685 188.646zM172.152 188.646L158.392 188.646C157.615 188.646 156.984 188.017 156.984 187.238 156.984 186.461 157.615 185.83 158.392 185.83L172.152 185.83C172.929 185.83 173.562 186.461 173.562 187.238 173.562 188.018 172.929 188.646 172.152 188.646zM112.095 194.276L97.464 194.276C96.685 194.276 96.055 193.645 96.055 192.867 96.055 192.089 96.685 191.458 97.464 191.458L112.095 191.458C112.874 191.458 113.504 192.089 113.504 192.867 113.504 193.646 112.874 194.276 112.095 194.276zM214.239 194.276L118.923 194.276C118.178 194.276 117.575 193.672 117.575 192.93L117.575 192.803C117.575 192.061 118.178 191.457 118.923 191.457L214.239 191.457C214.982 191.457 215.586 192.061 215.586 192.803L215.586 192.93C215.586 193.673 214.982 194.276 214.239 194.276zM112.095 216.567L97.464 216.567C96.685 216.567 96.055 215.935 96.055 215.158 96.055 214.38 96.685 213.749 97.464 213.749L112.095 213.749C112.874 213.749 113.504 214.38 113.504 215.158 113.504 215.936 112.874 216.567 112.095 216.567zM223.338 216.567L177.15 216.567C176.373 216.567 175.743 215.935 175.743 215.158 175.743 214.38 176.373 213.749 177.15 213.749L223.338 213.749C224.116 213.749 224.747 214.38 224.747 215.158 224.747 215.936 224.116 216.567 223.338 216.567zM153.685 216.567L118.985 216.567C118.206 216.567 117.576 215.935 117.576 215.158 117.576 214.38 118.206 213.749 118.985 213.749L153.685 213.749C154.462 213.749 155.093 214.38 155.093 215.158 155.093 215.936 154.462 216.567 153.685 216.567zM172.152 216.567L158.392 216.567C157.615 216.567 156.984 215.935 156.984 215.158 156.984 214.38 157.615 213.749 158.392 213.749L172.152 213.749C172.929 213.749 173.562 214.38 173.562 215.158 173.562 215.936 172.929 216.567 172.152 216.567z"/>
    <path fill="#FFC359" d="M181.228,222.196 L118.671,222.196 C118.066,222.196 117.575,221.705 117.575,221.101 L117.575,220.473 C117.575,219.868 118.066,219.377 118.671,219.377 L181.228,219.377 C181.831,219.377 182.322,219.867 182.322,220.473 L182.322,221.101 C182.322,221.705 181.831,222.196 181.228,222.196 Z"/>
    <path fill="#FF56A9" d="M219.576,200.1 L177.094,200.1 C176.348,200.1 175.743,199.493 175.743,198.746 L175.743,198.634 C175.743,197.888 176.348,197.282 177.094,197.282 L219.576,197.282 C220.324,197.282 220.93,197.887 220.93,198.634 L220.93,198.746 C220.93,199.492 220.324,200.1 219.576,200.1 Z"/>
    <path fill="#FFC359" d="M153.685 200.1L118.985 200.1C118.206 200.1 117.576 199.467 117.576 198.691 117.576 197.912 118.206 197.283 118.985 197.283L153.685 197.283C154.462 197.283 155.093 197.912 155.093 198.691 155.093 199.467 154.462 200.1 153.685 200.1zM172.152 200.1L158.392 200.1C157.615 200.1 156.984 199.467 156.984 198.691 156.984 197.912 157.615 197.283 158.392 197.283L172.152 197.283C172.929 197.283 173.562 197.912 173.562 198.691 173.562 199.467 172.929 200.1 172.152 200.1z"/>
    <g transform="translate(237 71)">
      <path fill="#E3EAFF" d="M65.398,95.181 L3.451,95.181 C1.764,95.181 0.397,93.814 0.397,92.127 L0.397,4.005 C0.397,2.319 1.764,0.951 3.451,0.951 L65.398,0.951 C67.085,0.951 68.452,2.319 68.452,4.005 L68.452,92.127 C68.452,93.814 67.085,95.181 65.398,95.181 Z"/>
      <path fill="#6DB8FF" d="M65.398,0.952 L3.451,0.952 C1.764,0.952 0.397,2.32 0.397,4.006 L0.397,14.912 L68.452,14.912 L68.452,4.006 C68.452,2.319 67.085,0.952 65.398,0.952 Z"/>
      <path fill="#E3EAFF" d="M50.748,10.295 L6.251,10.295 C5.207,10.295 4.359,9.448 4.359,8.404 C4.359,7.361 5.207,6.513 6.251,6.513 L50.748,6.513 C51.791,6.513 52.638,7.36 52.638,8.404 C52.638,9.448 51.791,10.295 50.748,10.295 Z"/>
    </g>
    <rect width="7.198" height="13.523" x="250.049" y="109.396" fill="#6DB8FF"/>
    <rect width="7.198" height="23.121" x="261.827" y="99.799" fill="#6DB8FF"/>
    <rect width="7.197" height="25.957" x="273.606" y="96.963" fill="#6DB8FF"/>
    <rect width="7.198" height="27.483" x="285.385" y="95.437" fill="#6DB8FF"/>
    <g transform="translate(246 130)">
      <path fill="#6DB8FF" d="M29.569,5.789 L21.499,5.789 C20.054,5.789 18.881,4.618 18.881,3.171 C18.881,1.725 20.054,0.554 21.499,0.554 L29.569,0.554 C31.013,0.554 32.186,1.725 32.186,3.171 C32.187,4.618 31.014,5.789 29.569,5.789 Z"/>
      <g transform="translate(0 15)">
        <path fill="#FF56A9" d="M11.684,5.839 L3.613,5.839 C2.169,5.839 0.996,4.668 0.996,3.222 C0.996,1.776 2.169,0.604 3.613,0.604 L11.684,0.604 C13.128,0.604 14.301,1.775 14.301,3.222 C14.301,4.668 13.128,5.839 11.684,5.839 Z"/>
        <path fill="#FFC359" d="M29.569,5.839 L21.499,5.839 C20.054,5.839 18.881,4.668 18.881,3.222 C18.881,1.776 20.054,0.604 21.499,0.604 L29.569,0.604 C31.013,0.604 32.186,1.775 32.186,3.222 C32.187,4.668 31.014,5.839 29.569,5.839 Z"/>
        <path fill="#FF56A9" d="M47.455,5.839 L39.385,5.839 C37.94,5.839 36.768,4.668 36.768,3.222 C36.768,1.776 37.94,0.604 39.385,0.604 L47.455,0.604 C48.9,0.604 50.072,1.775 50.072,3.222 C50.072,4.668 48.9,5.839 47.455,5.839 Z"/>
      </g>
      <path fill="#6DB8FF" d="M25.425 14.296C25.123 14.296 24.88 14.051 24.88 13.751L24.88 7.862C24.88 7.56 25.123 7.317 25.425 7.317 25.727 7.317 25.97 7.561 25.97 7.862L25.97 13.751C25.97 14.051 25.727 14.296 25.425 14.296zM18.22 18.222C18.22 18.523 17.975 18.767 17.675 18.767L15.61 18.767C15.308 18.767 15.065 18.523 15.065 18.222 15.065 17.92 15.308 17.677 15.61 17.677L17.675 17.677C17.975 17.677 18.22 17.92 18.22 18.222zM35.997 18.222C35.997 18.523 35.752 18.767 35.451 18.767L33.387 18.767C33.085 18.767 32.841 18.523 32.841 18.222 32.841 17.92 33.085 17.677 33.387 17.677L35.451 17.677C35.752 17.677 35.997 17.92 35.997 18.222z"/>
    </g>
    <path fill="#6DB8FF" d="M264.755,222.021 L241.194,222.021 C239.258,222.021 237.689,220.45 237.689,218.514 L237.689,178.703 C237.689,176.766 239.258,175.197 241.194,175.197 L264.755,175.197 C266.693,175.197 268.262,176.766 268.262,178.703 L268.262,218.514 C268.262,220.449 266.692,222.021 264.755,222.021 Z"/>
    <path fill="#2F6DFF" d="M264.675 215.949L241.275 215.949C240.303 215.949 239.515 215.161 239.515 214.188L239.515 178.99C239.515 178.017 240.303 177.229 241.275 177.229L264.675 177.229C265.649 177.229 266.436 178.017 266.436 178.99L266.436 214.188C266.436 215.161 265.648 215.949 264.675 215.949zM254.883 219.621L251.394 219.621C251.012 219.621 250.704 219.311 250.704 218.93 250.704 218.548 251.013 218.24 251.394 218.24L254.883 218.24C255.265 218.24 255.575 218.549 255.575 218.93 255.575 219.312 255.265 219.621 254.883 219.621z"/>
    <path fill="#FFF" d="M302.18 335.152L290.877 335.152C288.907 327.772 285.85 320.84 281.892 314.526L289.604 306.248C293.547 302.017 293.312 295.392 289.083 291.45L275.678 278.959C271.449 275.018 264.823 275.253 260.881 279.482L253.174 287.753C248.152 285.077 242.796 282.952 237.181 281.454L237.181 270.151C237.181 264.369 232.493 259.681 226.711 259.681L208.389 259.681C202.607 259.681 197.919 264.369 197.919 270.151L197.919 281.454C190.538 283.424 183.606 286.481 177.293 290.44L169.015 282.725C164.784 278.784 158.158 279.019 154.217 283.248L141.728 296.654C139.52 299.022 138.669 302.135 139.049 305.114 154.912 307.933 170.7 314.325 186.963 330.177 194.159 321.241 205.185 315.519 217.551 315.519 239.236 315.519 256.813 333.097 256.813 354.781 256.813 360.373 255.637 365.687 253.53 370.502 274.636 372.595 295.678 366.323 312.652 353.189L312.652 345.621C312.649 339.841 307.962 335.152 302.18 335.152zM166.944 24.983C161.723 24.983 156.743 23.955 152.185 22.104 146.867 27.334 141.464 34.679 136.332 44.945 134.858 47.896 133.443 50.611 132.073 53.126 136.879 55.617 141.975 57.625 147.313 59.05L147.313 70.352C147.313 76.134 152.001 80.822 157.783 80.822L176.105 80.822C181.887 80.822 186.575 76.134 186.575 70.352L186.575 59.05C193.955 57.079 200.887 54.022 207.201 50.063L215.479 57.777C219.71 61.718 226.336 61.485 230.278 57.255L242.767 43.85C246.71 39.62 246.475 32.995 242.246 29.053L234.083 21.448C216.883 20.475 204.046 18.836 193.872 14.28 186.841 20.91 177.372 24.983 166.944 24.983z"/>
    <path fill="#00C900" d="M303.327,342.568 C303.327,327.299 315.703,314.923 330.972,314.923 C334.379,314.923 337.628,315.569 340.643,316.694 C342.905,311.448 344.783,305.87 346.202,299.972 C346.86,297.239 347.407,294.537 347.872,291.861 C346.86,291.523 345.834,291.212 344.797,290.934 L344.797,282.976 C344.797,278.905 341.496,275.604 337.423,275.604 L324.524,275.604 C320.451,275.604 317.15,278.905 317.15,282.976 L317.15,290.934 C311.955,292.323 307.072,294.475 302.629,297.262 L296.799,291.829 C293.82,289.056 289.154,289.219 286.378,292.197 L277.584,301.636 C274.81,304.615 274.973,309.281 277.951,312.056 L283.776,317.482 C281.893,321.018 280.397,324.791 279.34,328.743 L271.382,328.743 C267.311,328.743 264.01,332.044 264.01,336.117 L264.01,349.016 C264.01,353.089 267.311,356.39 271.382,356.39 L279.34,356.39 C280.409,360.394 281.944,364.204 283.861,367.78 C292.144,365.431 300.081,361.787 307.398,356.951 C304.832,352.759 303.327,347.845 303.327,342.568 Z"/>
    <circle cx="58.538" cy="261.863" r="45.369" fill="#00C900"/>
    <g fill="#F9FBFC" transform="translate(29 250)">
      <polygon points="26.25 7.606 8.23 14.21 26.25 20.757 26.25 27.523 .492 17.728 .492 10.692 26.25 .898"/>
      <polygon points="32.135 .897 57.894 10.691 57.894 17.727 32.135 27.522 32.135 20.756 50.156 14.209 32.135 7.605"/>
    </g>
    <circle cx="88.202" cy="312.468" r="5.235" fill="#1E2C4F"/>
  </g>
</svg>
